<svg width="18" height="18" viewBox="0 0 18 18" fill="none" xmlns="http://www.w3.org/2000/svg">
<circle cx="8.99609" cy="8.99609" r="8.24609" fill="#C6DCFB" stroke="#ACCAF6" stroke-width="1.5"/>
<path d="M12.9046 5.09605L10.5432 10.074C10.4444 10.2823 10.2767 10.4501 10.0683 10.5489L5.09039 12.9103L7.45179 7.93236C7.55061 7.72404 7.71838 7.55627 7.9267 7.45745L12.9046 5.09605Z" fill="#5A5E63" stroke="#5A5E63" stroke-linejoin="round"/>
<circle cx="0.384766" cy="0.384766" r="0.384766" transform="matrix(1 0 0 -1 8.61133 9.38867)" fill="#F8F9FD" stroke="#F8F9FD"/>
<rect x="8.49023" y="2" width="1.01172" height="1.70386" rx="0.505859" fill="#98B8E9"/>
<rect x="8.49023" y="14.3047" width="1.01172" height="1.70386" rx="0.505859" fill="#98B8E9"/>
<rect x="16" y="8.49805" width="1.01172" height="1.70386" rx="0.505859" transform="rotate(90 16 8.49805)" fill="#98B8E9"/>
<rect x="3.69531" y="8.49805" width="1.01172" height="1.70386" rx="0.505859" transform="rotate(90 3.69531 8.49805)" fill="#98B8E9"/>
</svg>
