<svg width="16" height="16" viewBox="0 0 16 16" fill="none" xmlns="http://www.w3.org/2000/svg">
<path d="M7.06931 2.89111H4.2C3.07989 2.89111 2.51984 2.89111 2.09202 3.1091C1.71569 3.30085 1.40973 3.60681 1.21799 3.98313C1 4.41096 1 4.97101 1 6.09111V11.8297C1 12.9498 1 13.5099 1.21799 13.9377C1.40973 14.314 1.71569 14.62 2.09202 14.8117C2.51984 15.0297 3.0799 15.0297 4.2 15.0297H9.93862C11.0587 15.0297 11.6188 15.0297 12.0466 14.8117C12.4229 14.62 12.7289 14.314 12.9206 13.9377C13.1386 13.5099 13.1386 12.9498 13.1386 11.8297V8.96042" stroke="#3F424B"/>
<path d="M12.341 1.46303C12.6375 1.16656 13.0396 1 13.4589 1C13.8782 1 14.2803 1.16656 14.5767 1.46303C14.8732 1.75951 15.0398 2.16161 15.0398 2.58089C15.0398 3.00017 14.8732 3.40228 14.5767 3.69875L8.0368 10.2386L5.58203 10.4577L5.80108 8.00289L12.341 1.46303Z" stroke="#3F424B" stroke-linecap="round" stroke-linejoin="round"/>
</svg>
