<svg width="16" height="16" viewBox="0 0 16 16" fill="none" xmlns="http://www.w3.org/2000/svg">
<path d="M7.04849 2.86572H4.17949C3.05939 2.86572 2.49933 2.86572 2.07151 3.08371C1.69519 3.27546 1.38923 3.58142 1.19748 3.95774C0.979492 4.38557 0.979492 4.94562 0.979492 6.06572V11.8037C0.979492 12.9238 0.979492 13.4839 1.19748 13.9117C1.38923 14.288 1.69519 14.594 2.07151 14.7857C2.49933 15.0037 3.05939 15.0037 4.17949 15.0037H9.91749C11.0376 15.0037 11.5976 15.0037 12.0255 14.7857C12.4018 14.594 12.7078 14.288 12.8995 13.9117C13.1175 13.4839 13.1175 12.9238 13.1175 11.8037V8.93472" stroke="#3F424B"/>
<path d="M12.3211 1.43762C12.6176 1.14116 13.0197 0.974609 13.4389 0.974609C13.8582 0.974609 14.2603 1.14116 14.5567 1.43762C14.8532 1.73408 15.0197 2.13616 15.0197 2.55542C15.0197 2.97468 14.8532 3.37676 14.5567 3.67322L8.01714 10.2127L5.5625 10.4318L5.78154 7.97714L12.3211 1.43762Z" stroke="#3F424B" stroke-linecap="round" stroke-linejoin="round"/>
</svg>
