<svg width="21" height="23" viewBox="0 0 21 23" fill="none" xmlns="http://www.w3.org/2000/svg">
<g id="Group 164">
<g id="Group 159">
<path id="Vector 19" d="M1.34004 6.54283L8.64004 1.32854L8.64005 1.32854C9.30928 0.850513 9.6439 0.611501 10.0089 0.519046C10.3312 0.437394 10.6688 0.437394 10.9911 0.519046C11.3561 0.611501 11.6907 0.850516 12.36 1.32855L19.66 6.54283C20.1507 6.89338 20.3961 7.06865 20.5734 7.29452C20.7303 7.49452 20.8477 7.72263 20.9192 7.96661C21 8.24212 21 8.54367 21 9.14678V21.4C21 21.9601 21 22.2401 20.891 22.454C20.7951 22.6422 20.6422 22.7951 20.454 22.891C20.2401 23 19.9601 23 19.4 23H1.6C1.03995 23 0.759921 23 0.546009 22.891C0.357847 22.7951 0.204867 22.6422 0.108993 22.454C0 22.2401 0 21.9601 0 21.4V9.14678C0 8.54367 0 8.24212 0.080769 7.96661C0.152292 7.72263 0.269678 7.49452 0.426639 7.29452C0.603891 7.06865 0.849274 6.89338 1.34004 6.54283Z" fill="#B1B7C5"/>
<path id="Rectangle 135" d="M7 17.6C7 17.0399 7 16.7599 7.10899 16.546C7.20487 16.3578 7.35785 16.2049 7.54601 16.109C7.75992 16 8.03995 16 8.6 16H12.4C12.9601 16 13.2401 16 13.454 16.109C13.6422 16.2049 13.7951 16.3578 13.891 16.546C14 16.7599 14 17.0399 14 17.6V23H7V17.6Z" fill="white"/>
</g>
</g>
</svg>
