<svg width="16" height="13" viewBox="0 0 16 13" fill="none" xmlns="http://www.w3.org/2000/svg">
<path d="M1.72084 2.07517L0.15625 6.24219H15.8481L14.1968 2.03166C13.9092 1.29843 13.7654 0.931823 13.5226 0.662001C13.308 0.423602 13.0392 0.240308 12.7389 0.127583C12.3991 0 12.0053 0 11.2177 0H4.71663C3.91744 0 3.51785 0 3.17433 0.130673C2.87085 0.24611 2.60005 0.433696 2.3853 0.677226C2.14222 0.952898 2.00176 1.32699 1.72084 2.07517Z" fill="#91969F"/>
<rect y="5" width="16" height="8" rx="2" fill="#545A64"/>
<rect x="2.83008" y="8.33008" width="1.33984" height="1.33984" rx="0.669922" fill="#F8F9FD"/>
<rect x="5.16992" y="8.33008" width="1.33984" height="1.33984" rx="0.669922" fill="#F8F9FD"/>
</svg>
