<svg width="11" height="15" viewBox="0 0 11 15" fill="none" xmlns="http://www.w3.org/2000/svg">
<path d="M0 3.02742C0 2.04565 0 1.55477 0.204379 1.28634C0.382393 1.05255 0.654228 0.908883 0.947678 0.893509C1.28459 0.875857 1.69017 1.15239 2.50134 1.70546L9.06112 6.17804C9.71124 6.6213 10.0363 6.84293 10.1502 7.12078C10.2498 7.36379 10.2498 7.63621 10.1502 7.87922C10.0363 8.15707 9.71124 8.3787 9.06112 8.82196L2.50134 13.2945C1.69017 13.8476 1.28459 14.1241 0.947678 14.1065C0.654228 14.0911 0.382393 13.9475 0.204379 13.7137C0 13.4452 0 12.9543 0 11.9726V3.02742Z" fill="#727882"/>
</svg>
