<svg width="15" height="16" viewBox="0 0 15 16" fill="none" xmlns="http://www.w3.org/2000/svg">
<path d="M8.19922 1.283C8.19922 0.984634 8.19922 0.835451 8.13723 0.754662C8.08326 0.684312 8.00092 0.641444 7.91233 0.637567C7.8106 0.633116 7.68839 0.718666 7.44396 0.889767L4.18866 3.16847C3.99968 3.30076 3.90519 3.3669 3.87189 3.44931C3.84275 3.52141 3.84275 3.602 3.87189 3.6741C3.90519 3.75651 3.99968 3.82265 4.18866 3.95494L7.44396 6.23365C7.68839 6.40475 7.8106 6.4903 7.91233 6.48585C8.00092 6.48197 8.08326 6.4391 8.13723 6.36875C8.19922 6.28796 8.19922 6.13878 8.19922 5.84041V1.283Z" fill="#727882"/>
<path d="M1.37305 9.0225C1.37305 12.1243 4.11618 14.6389 7.5 14.6389C10.8838 14.6389 13.627 12.1243 13.627 9.0225C13.627 5.92066 10.8838 3.40613 7.5 3.40613" stroke="#727882" stroke-width="1.5" stroke-linecap="round"/>
</svg>
