<svg width="25" height="21" viewBox="0 0 25 21" fill="none" xmlns="http://www.w3.org/2000/svg">
<g id="Group 166">
<g id="Group 161">
<g id="Group 160">
<path id="Vector" d="M2.78125 0C4.66281 0 4.00046 3 5.47349 3.23227V17.4893V17.5903C5.47349 19.4718 7.00169 21 8.88324 21C10.7648 21 13.1099 20.2382 13.1099 18.3566L20.8197 17.5903V3.40975C20.8197 1.52819 19.2915 0 17.4099 0H2.78125Z" fill="#5D7CFF"/>
<path id="Vector_2" d="M23.1138 17.5902C23.474 17.5902 23.6541 17.5902 23.8267 17.7008C23.9512 17.7806 24.0935 17.9796 24.1288 18.1231C24.1777 18.3223 24.1358 18.445 24.0521 18.6905C23.5938 20.033 22.3208 21 20.8241 21H8.8877C9.92825 21 10.8607 20.5326 11.4864 19.7965C12.5219 18.5784 13.0397 17.9693 13.2007 17.8576C13.461 17.6771 13.364 17.722 13.6701 17.6406C13.8596 17.5902 14.1389 17.5902 14.6974 17.5902H23.1138Z" fill="#4460D4"/>
</g>
<rect id="Rectangle 136" x="8.69727" y="4.56525" width="4.56522" height="1.18696" rx="0.5" fill="white"/>
<rect id="Rectangle 137" x="8.69727" y="8.21741" width="9.13043" height="1.18696" rx="0.5" fill="white"/>
<rect id="Rectangle 138" x="8.69727" y="11.8696" width="9.13043" height="1.18696" rx="0.5" fill="white"/>
<path id="Rectangle 139" d="M0 2.73913C0 1.22635 1.22635 0 2.73913 0C4.25191 0 5.47826 1.22635 5.47826 2.73913V3.24043H0.162022C0.0725398 3.24043 0 3.16789 0 3.07841V2.73913Z" fill="#4460D4"/>
</g>
</g>
</svg>
