<svg width="25" height="21" viewBox="0 0 25 21" fill="none" xmlns="http://www.w3.org/2000/svg">
<g id="Group 161">
<g id="Group 160">
<path id="Vector" d="M2.78076 0C4.66232 0 4.49997 2.5 5.47301 3.23227V17.4893V17.5903C5.47301 19.4718 7.0012 21 8.88275 21C10.7643 21 13.1094 20.2382 13.1094 18.3566L20.8192 17.5903V3.40975C20.8192 1.52819 19.291 0 17.4094 0H2.78076Z" fill="#B1B7C5"/>
<path id="Vector_2" d="M23.1136 17.5902C23.4738 17.5902 23.6538 17.5902 23.8265 17.7008C23.9509 17.7806 24.0933 17.9796 24.1285 18.1231C24.1775 18.3223 24.1356 18.445 24.0518 18.6905C23.5936 20.033 22.3205 21 20.8239 21H8.88745C9.928 21 10.8605 20.5326 11.4862 19.7965C12.5217 18.5784 13.0394 17.9693 13.2005 17.8576C13.4608 17.6771 13.3637 17.722 13.6699 17.6406C13.8593 17.5902 14.1386 17.5902 14.6972 17.5902H23.1136Z" fill="#959CAC"/>
</g>
<rect id="Rectangle 136" x="8.69702" y="4.56525" width="4.56522" height="1.18696" rx="0.5" fill="white"/>
<rect id="Rectangle 137" x="8.69702" y="8.21741" width="9.13043" height="1.18696" rx="0.5" fill="white"/>
<rect id="Rectangle 138" x="8.69702" y="11.8696" width="9.13043" height="1.18696" rx="0.5" fill="white"/>
<path id="Rectangle 139" d="M0 2.73913C0 1.22635 1.22635 0 2.73913 0C4.25191 0 5.47826 1.22635 5.47826 2.73913V3.24043H0.162022C0.0725398 3.24043 0 3.16789 0 3.07841V2.73913Z" fill="#959CAC"/>
</g>
</svg>
