<svg width="29" height="29" viewBox="0 0 29 29" fill="none" xmlns="http://www.w3.org/2000/svg">
<path d="M5.27344 12.5381C5.27344 11.418 5.27344 10.8579 5.49142 10.4301C5.68317 10.0538 5.98913 9.7478 6.36546 9.55606C6.79328 9.33807 7.35333 9.33807 8.47344 9.33807H9.88707L10.475 8.45621C10.8223 7.93523 10.996 7.67474 11.2254 7.48616C11.4285 7.31921 11.6626 7.19395 11.9142 7.11755C12.1983 7.03125 12.5114 7.03125 13.1375 7.03125H15.8639C16.49 7.03125 16.8031 7.03125 17.0873 7.11755C17.3389 7.19395 17.5729 7.31921 17.776 7.48616C18.0055 7.67474 18.1791 7.93523 18.5264 8.45621L19.1143 9.33807H20.528C21.6481 9.33807 22.2081 9.33807 22.636 9.55606C23.0123 9.7478 23.3183 10.0538 23.51 10.4301C23.728 10.8579 23.728 11.418 23.728 12.5381V17.6722C23.728 18.7923 23.728 19.3523 23.51 19.7801C23.3183 20.1565 23.0123 20.4624 22.636 20.6542C22.2081 20.8722 21.6481 20.8722 20.528 20.8722H8.47344C7.35333 20.8722 6.79328 20.8722 6.36546 20.6542C5.98913 20.4624 5.68317 20.1565 5.49142 19.7801C5.27344 19.3523 5.27344 18.7923 5.27344 17.6722V12.5381Z" fill="#545A64"/>
<circle cx="14.5009" cy="14.7197" r="3.8447" fill="#93D3EE"/>
<rect x="19.498" y="10.875" width="1.92235" height="0.768939" rx="0.38447" fill="#ECF0F7"/>
</svg>
