<svg width="12" height="23" viewBox="0 0 12 23" fill="none" xmlns="http://www.w3.org/2000/svg">
<path fill-rule="evenodd" clip-rule="evenodd" d="M5.99979 5.11523C2.6879 5.11523 0 7.67079 0 10.8196C0 13.0861 1.36719 14.5695 1.9251 15.1749C1.952 15.2041 1.97703 15.2312 1.99993 15.2563C2.23424 15.5132 2.54347 15.8551 2.80513 16.3467C3.42183 17.5053 3.73018 18.0847 3.90863 18.2533C4.13886 18.4709 4.16044 18.4838 4.46068 18.5848C4.6934 18.6631 5.04 18.6631 5.73322 18.6631H5.99979V5.11523ZM6.00021 5.11523C9.3121 5.11523 12 7.67079 12 10.8196C12 13.0861 10.6328 14.5695 10.0749 15.1749C10.048 15.2041 10.023 15.2312 10.0001 15.2563C9.76576 15.5132 9.45653 15.8551 9.19487 16.3467C8.57817 17.5053 8.26982 18.0847 8.09137 18.2533C7.86114 18.4709 7.83956 18.4838 7.53932 18.5848C7.3066 18.6631 6.96 18.6631 6.26678 18.6631H6.00021V5.11523Z" fill="#F3D159"/>
<rect x="3.75" y="19.3789" width="4.49984" height="1.42609" rx="0.713047" fill="#545A64"/>
<rect x="3.75" y="21.5176" width="4.49984" height="1.42609" rx="0.713047" fill="#545A64"/>
<rect x="5.25" width="1.49995" height="2.97788" rx="0.749973" fill="#F3D159"/>
<rect width="1.48183" height="3.01717" rx="0.740914" transform="matrix(0.876614 0.481194 -0.519045 0.854747 10.7012 0.984375)" fill="#F3D159"/>
<rect width="1.48183" height="3.01717" rx="0.740914" transform="matrix(-0.876614 0.481194 0.519045 0.854747 1.29883 0.984375)" fill="#F3D159"/>
</svg>
