<svg width="10" height="15" viewBox="0 0 10 15" fill="none" xmlns="http://www.w3.org/2000/svg">
<path fill-rule="evenodd" clip-rule="evenodd" d="M5 0C2.24 0 0 2.15997 0 4.82136C0 6.73699 1.13937 7.99082 1.6043 8.50246C1.62673 8.52714 1.64758 8.55009 1.66667 8.57131C1.85929 8.78545 2.11265 9.14178 2.32878 9.6256C2.76439 10.6007 2.9822 11.0883 3.11645 11.2486C3.38158 11.5652 3.45902 11.6154 3.85624 11.7284C4.05737 11.7855 4.37158 11.7855 5 11.7855C5.62842 11.7855 5.94263 11.7855 6.14376 11.7284C6.54098 11.6154 6.61842 11.5652 6.88355 11.2486C7.0178 11.0883 7.23561 10.6007 7.67122 9.6256C7.88735 9.14178 8.14071 8.78545 8.33333 8.57131C8.35242 8.55009 8.37327 8.52714 8.39569 8.50247C8.86063 7.99082 10 6.737 10 4.82136C10 2.15997 7.76 0 5 0Z" fill="#C7CDD6"/>
<rect x="3.05664" y="12.3223" width="3.88889" height="1.07141" rx="0.535707" fill="#545A64"/>
<rect x="3.05664" y="13.9277" width="3.88889" height="1.07141" rx="0.535707" fill="#545A64"/>
</svg>
