<svg width="20" height="20" viewBox="0 0 20 20" fill="none" xmlns="http://www.w3.org/2000/svg">
<path d="M14.9169 9.99981C14.9169 12.7097 12.7286 14.902 10.0346 14.902C7.34071 14.902 5.15234 12.7097 5.15234 9.99981C5.15234 7.28993 7.34071 5.09766 10.0346 5.09766C12.7286 5.09766 14.9169 7.28993 14.9169 9.99981Z" stroke="#545A64" stroke-width="1.5"/>
<path d="M15.6056 9.99826C15.6056 13.0856 13.1116 15.5883 10.0352 15.5883C10.0352 15.5883 10.0352 13.0856 10.0352 9.99826C10.0352 6.91096 10.0352 4.4082 10.0352 4.4082C13.1116 4.4082 15.6056 6.91096 15.6056 9.99826Z" fill="#545A64"/>
<rect x="9.38672" width="1.29976" height="2.6087" rx="0.649881" fill="#545A64"/>
<rect x="9.38672" y="17.3906" width="1.29976" height="2.6087" rx="0.649881" fill="#545A64"/>
<rect width="1.30206" height="2.60411" rx="0.651029" transform="matrix(0.70586 0.708351 -0.70586 0.708351 16.623 2.46875)" fill="#545A64"/>
<rect width="1.30206" height="2.60411" rx="0.651029" transform="matrix(0.70586 0.708351 -0.70586 0.708351 4.36914 14.7676)" fill="#545A64"/>
<rect x="20" y="9.34766" width="1.30435" height="2.59952" rx="0.652174" transform="rotate(90 20 9.34766)" fill="#545A64"/>
<rect x="2.66992" y="9.34766" width="1.30435" height="2.59952" rx="0.652174" transform="rotate(90 2.66992 9.34766)" fill="#545A64"/>
<rect width="1.30206" height="2.60411" rx="0.651029" transform="matrix(-0.70586 0.708351 -0.70586 -0.708351 17.541 16.6113)" fill="#545A64"/>
<rect width="1.30206" height="2.60411" rx="0.651029" transform="matrix(-0.70586 0.708351 -0.70586 -0.708351 5.28711 4.3125)" fill="#545A64"/>
</svg>
