<svg width="16" height="15" viewBox="0 0 16 15" fill="none" xmlns="http://www.w3.org/2000/svg">
<path d="M0.695312 1.76367H15.3039L15.9996 3.0872H1.39096L0.695312 1.76367Z" fill="#FFCD92"/>
<path d="M0.695312 4.41016H15.3039L15.9996 5.73369H1.39096L0.695312 4.41016Z" fill="#FFCD92"/>
<path d="M0.695312 7.05859H15.3039L15.9996 8.38212H1.39096L0.695312 7.05859Z" fill="#FFCD92"/>
<path d="M0.695312 9.70508H15.3039L15.9996 11.0286H1.39096L0.695312 9.70508Z" fill="#FFCD92"/>
<path d="M0.695312 12.3516H15.3039L15.9996 13.6751H1.39096L0.695312 12.3516Z" fill="#FFCD92"/>
<path d="M1.39096 3.08789H15.9996L15.3039 4.41142H0.695312L1.39096 3.08789Z" fill="#F6A84D"/>
<path d="M1.39096 5.73438H15.9996L15.3039 7.0579H0.695312L1.39096 5.73438Z" fill="#F6A84D"/>
<path d="M1.39096 8.38086H15.9996L15.3039 9.70439H0.695312L1.39096 8.38086Z" fill="#F6A84D"/>
<path d="M1.39096 11.0293H15.9996L15.3039 12.3528H0.695312L1.39096 11.0293Z" fill="#F6A84D"/>
<path d="M1.39096 13.6758H15.9996L15.3039 14.9993H0.695312L1.39096 13.6758Z" fill="#F6A84D"/>
<rect width="15.9999" height="1.76471" rx="0.882353" fill="#706962"/>
<path d="M4.43061 11.9606C4.48529 12.0049 4.51263 12.027 4.53568 12.0515C4.60734 12.1275 4.6534 12.224 4.66738 12.3275C4.67187 12.3609 4.67187 12.396 4.67187 12.4664L4.67187 12.9216C4.67187 13.389 4.29296 13.768 3.82554 13.768C3.35812 13.768 2.9792 13.389 2.9792 12.9216L2.9792 12.4664C2.9792 12.396 2.9792 12.3609 2.9837 12.3275C2.99768 12.224 3.04373 12.1275 3.1154 12.0515C3.13845 12.027 3.16579 12.0049 3.22047 11.9606L3.32213 11.8783C3.50162 11.733 3.59137 11.6603 3.69109 11.6325C3.77904 11.6079 3.87204 11.6079 3.95998 11.6325C4.05971 11.6603 4.14945 11.733 4.32895 11.8783L4.43061 11.9606Z" fill="#706962"/>
<line x1="3.71094" y1="10.5293" x2="3.71094" y2="2.70577" stroke="#706962" stroke-linecap="round" stroke-dasharray="0.5 1.7"/>
</svg>
