<svg width="11" height="15" viewBox="0 0 11 15" fill="none" xmlns="http://www.w3.org/2000/svg">
<path d="M1.32623 4.80453C1.32448 4.78531 1.32284 4.76719 1.32129 4.75002C1.33853 4.75 1.35673 4.75 1.37603 4.75H9.62397C9.64327 4.75 9.66147 4.75 9.67871 4.75002C9.67716 4.76719 9.67552 4.78531 9.67377 4.80453L8.88537 13.477C8.86095 13.7455 8.84601 13.9039 8.82606 14.0209C8.81386 14.0923 8.80369 14.1218 8.80055 14.1296C8.7757 14.1706 8.73959 14.2036 8.69654 14.2246C8.68846 14.227 8.65816 14.2345 8.5859 14.2402C8.46761 14.2495 8.30853 14.25 8.03886 14.25H2.96114C2.69147 14.25 2.53239 14.2495 2.4141 14.2402C2.34184 14.2345 2.31154 14.227 2.30346 14.2246C2.2604 14.2036 2.2243 14.1706 2.19945 14.1296C2.19631 14.1218 2.18613 14.0923 2.17394 14.0209C2.15399 13.9039 2.13905 13.7455 2.11463 13.477L1.32623 4.80453ZM8.79955 14.1319C8.79953 14.1319 8.79975 14.1313 8.80026 14.1303L8.79955 14.1319ZM8.69887 14.2238C8.69892 14.2238 8.69843 14.224 8.6973 14.2244L8.69887 14.2238ZM2.30113 14.2238C2.30116 14.2238 2.30171 14.224 2.30269 14.2244L2.30113 14.2238ZM2.19976 14.1304C2.20024 14.1313 2.20046 14.1319 2.20045 14.1319L2.19976 14.1304Z" fill="#727882" stroke="#727882" stroke-width="1.5"/>
<rect y="1.5" width="11" height="1.5" rx="0.5" fill="#727882"/>
<rect x="3.5" width="4" height="3" rx="1" fill="#727882"/>
<rect x="3.5" y="7" width="1" height="4" rx="0.5" fill="white"/>
<rect x="6.5" y="7" width="1" height="4" rx="0.5" fill="white"/>
</svg>
